HIERARCHY
ROOT Hips
{
	OFFSET 55.310501 45.591206 43.872097
	CHANNELS 6 Xposition Yposition Zposition Zrotation Xrotation Yrotation
	JOINT Chest
	{
		OFFSET -0.153500 1.163101 7.852402
		CHANNELS 6 Xposition Yposition Zposition Zrotation Xrotation Yrotation
		JOINT Chest2
		{
			OFFSET 0.000000 0.000000 3.343300
			CHANNELS 6 Xposition Yposition Zposition Zrotation Xrotation Yrotation
			JOINT Neck
			{
				OFFSET 0.000000 0.000000 7.785500
				CHANNELS 6 Xposition Yposition Zposition Zrotation Xrotation Yrotation
				JOINT Head
				{
					OFFSET 0.000000 0.000000 2.173901
					CHANNELS 6 Xposition Yposition Zposition Zrotation Xrotation Yrotation
					End Site
					{
						OFFSET 0.000000 0.000000 10.528198
					}
				}
			}
			JOINT LeftCollar
			{
				OFFSET 2.676300 -1.652401 4.938301
				CHANNELS 6 Xposition Yposition Zposition Zrotation Xrotation Yrotation
				JOINT LeftShoulder
				{
					OFFSET 4.299000 0.000000 0.000000
					CHANNELS 6 Xposition Yposition Zposition Zrotation Xrotation Yrotation
					JOINT LeftElbow
					{
						OFFSET 0.000000 0.000000 -10.245102
						CHANNELS 6 Xposition Yposition Zposition Zrotation Xrotation Yrotation
						JOINT LeftWrist
						{
							OFFSET 0.000000 0.000000 -12.703300
							CHANNELS 6 Xposition Yposition Zposition Zrotation Xrotation Yrotation
							End Site
							{
								OFFSET 0.000000 0.000000 -2.173901
							}
						}
					}
				}
			}
			JOINT RightCollar
			{
				OFFSET -2.534599 -1.686401 5.195000
				CHANNELS 6 Xposition Yposition Zposition Zrotation Xrotation Yrotation
				JOINT RightShoulder
				{
					OFFSET -4.144100 0.000000 0.000000
					CHANNELS 6 Xposition Yposition Zposition Zrotation Xrotation Yrotation
					JOINT RightElbow
					{
						OFFSET 0.000000 0.000000 -10.116501
						CHANNELS 6 Xposition Yposition Zposition Zrotation Xrotation Yrotation
						JOINT RightWrist
						{
							OFFSET 0.000000 0.000000 -12.937801
							CHANNELS 6 Xposition Yposition Zposition Zrotation Xrotation Yrotation
							End Site
							{
								OFFSET 0.000000 0.000000 -2.173901
							}
						}
					}
				}
			}
		}
	}
	JOINT LeftHip
	{
		OFFSET 2.175598 0.064499 -2.662899
		CHANNELS 6 Xposition Yposition Zposition Zrotation Xrotation Yrotation
		JOINT LeftKnee
		{
			OFFSET 0.000000 -0.000004 -18.585800
			CHANNELS 6 Xposition Yposition Zposition Zrotation Xrotation Yrotation
			JOINT LeftAnkle
			{
				OFFSET 0.000000 0.000000 -18.979500
				CHANNELS 6 Xposition Yposition Zposition Zrotation Xrotation Yrotation
				End Site
				{
					OFFSET 0.000000 -9.264000 0.000000
				}
			}
		}
	}
	JOINT RightHip
	{
		OFFSET -2.092400 -0.058102 -2.581200
		CHANNELS 6 Xposition Yposition Zposition Zrotation Xrotation Yrotation
		JOINT RightKnee
		{
			OFFSET 0.000000 -0.000004 -18.665001
			CHANNELS 6 Xposition Yposition Zposition Zrotation Xrotation Yrotation
			JOINT RightAnkle
			{
				OFFSET 0.000000 0.000000 -18.566601
				CHANNELS 6 Xposition Yposition Zposition Zrotation Xrotation Yrotation
				End Site
				{
					OFFSET 0.000000 -8.497601 0.000000
				}
			}
		}
	}
}
MOTION
Frames: 4
Frame Time: 0.041667
63.087700 -6.026695 42.660599 3192.094919 -2.574566 -6.899862 -0.153504 1.163107 7.852396 47.984015 8.500795 -1.516163 0.000013 0.000002 3.343305 -20.524857 -3.032528 -1.573707 -0.000006 0.000001 7.785501 24.588917 1.468428 -0.198374 -0.000006 0.000003 2.173905 1.915484 -3.883790 3.071817 2.676291 -1.652395 4.938306 5.645364 3.619087 10.287916 4.299006 -0.000002 -0.000012 -388.994245 -24.987334 255.245481 -0.000008 0.000000 -10.245102 34.355561 747.024456 328.206927 0.000001 0.000007 -12.703297 1229.518199 -180.086803 553.814414 -2.534602 -1.686399 5.195005 15.665150 10.705089 3.614060 -4.144102 0.000004 0.000004 194.657960 111.274348 -142.340582 0.000002 -0.000002 -10.116501 -569.087318 -171.428022 -118.520161 -0.000005 -0.000003 -12.937799 -1559.662113 -1.614787 -4.276600 2.175592 0.064499 -2.662904 -980.639875 -37.909141 105.985644 -0.000003 -0.000002 -18.585804 493.493899 -229.096457 -158.071532 -0.000005 0.000008 -18.979507 695.471171 64.221400 -721.708824 -2.092404 -0.058107 -2.581210 1431.173250 -19.000592 10.807643 -0.000006 -0.000004 -18.665003 -1124.177557 52.921935 -1079.272396 -0.000006 -0.000006 -18.566597 720.017615 -6.782298 -35.570126
63.085403 -6.030090 42.656296 3192.028257 -2.673847 -6.934675 -0.153509 1.163094 7.852407 48.046771 8.597116 -1.575826 -0.000002 0.000002 3.343305 -20.506204 -2.886211 -1.573068 0.000001 0.000003 7.785502 24.601711 1.307307 -0.127248 -0.000002 0.000002 2.173901 1.877470 -3.908540 3.059924 2.676291 -1.652397 4.938298 5.708062 3.505716 10.159014 4.299002 0.000004 -0.000006 -389.072191 -25.370867 255.365091 -0.000001 -0.000002 -10.245110 33.669814 747.282364 328.336974 0.000007 0.000007 -12.703308 1229.637098 -180.089153 553.792721 -2.534593 -1.686398 5.194999 15.609241 10.355042 3.408953 -4.144103 0.000003 -0.000009 194.301410 111.037231 -141.969621 0.000004 0.000011 -10.116501 -568.942737 -171.173884 -118.286937 -0.000005 -0.000010 -12.937798 -1559.280387 -1.397929 -4.082840 2.175596 0.064492 -2.662893 -980.531794 -37.862676 106.019501 -0.000000 -0.000006 -18.585798 494.811688 -228.975111 -159.042854 -0.000010 0.000005 -18.979507 692.856193 64.436251 -720.023407 -2.092392 -0.058114 -2.581191 1431.682400 -18.694501 11.035086 -0.000010 0.000001 -18.665014 -1124.821343 52.780423 -1079.270757 -0.000000 0.000001 -18.566595 720.245743 -6.596673 -35.073500
63.082695 -6.035091 42.651600 3191.965310 -2.802378 -6.987128 -0.153509 1.163106 7.852408 48.106296 8.725026 -1.665042 0.000010 0.000005 3.343303 -20.492644 -2.890940 -1.572729 -0.000008 0.000007 7.785494 24.562274 1.291947 -0.051901 -0.000001 0.000001 2.173904 1.822979 -3.955482 2.937298 2.676286 -1.652393 4.938299 5.732408 3.513375 10.129427 4.299005 0.000000 -0.000009 -389.058777 -25.344500 255.434049 -0.000012 -0.000006 -10.245100 33.607843 747.497979 328.302769 -0.000001 0.000004 -12.703301 1229.736327 -180.079071 553.761084 -2.534611 -1.686397 5.194990 15.636012 10.332664 3.464841 -4.144094 -0.000004 0.000005 194.558444 111.091552 -142.370690 0.000006 -0.000002 -10.116510 -568.582758 -171.265737 -117.934718 -0.000002 -0.000003 -12.937801 -1559.038325 -0.942588 -3.743721 2.175594 0.064508 -2.662895 -980.488627 -37.789388 106.014385 -0.000001 -0.000004 -18.585800 497.041335 -228.942395 -160.799278 -0.000005 -0.000002 -18.979504 687.736283 62.124300 -707.547438 -2.092398 -0.058103 -2.581191 1432.549451 -18.233981 11.355548 0.000002 0.000002 -18.665005 -1125.731562 52.555656 -1079.364413 -0.000004 -0.000004 -18.566599 720.425677 -6.431775 -34.568639
63.080399 -6.036903 42.650791 3191.943234 -2.909543 -7.019620 -0.153502 1.163105 7.852400 48.142561 8.598908 -1.800113 -0.000002 0.000001 3.343300 -20.395360 -2.850597 -1.555182 -0.000001 0.000008 7.785505 24.452415 1.628375 0.084243 0.000002 0.000001 2.173901 1.749140 -4.185814 2.877143 2.676291 -1.652395 4.938305 5.148749 3.729380 10.244614 4.299008 0.000000 -0.000008 -388.613803 -25.002688 255.364708 0.000001 0.000000 -10.245110 34.679083 747.518197 327.888586 -0.000007 -0.000000 -12.703317 1229.444105 -180.055698 553.759882 -2.534596 -1.686402 5.195004 16.033359 10.759419 3.632523 -4.144101 0.000003 0.000004 194.123375 111.470914 -142.430249 0.000000 0.000000 -10.116503 -568.483857 -170.795751 -117.841636 -0.000006 -0.000006 -12.937808 -1558.032812 -0.378086 -3.523296 2.175597 0.064504 -2.662892 -980.508407 -37.725416 105.961868 -0.000007 -0.000004 -18.585804 499.179567 -228.765793 -162.537834 -0.000003 -0.000005 -18.979506 683.805973 61.116212 -701.196236 -2.092406 -0.058111 -2.581200 1433.188101 -17.864155 11.481613 -0.000010 -0.000009 -18.665005 -1125.656375 52.247184 -1079.907112 -0.000004 0.000003 -18.566601 720.011604 -6.648780 -35.123141
